<svg width="60" height="41" viewBox="0 0 60 41" fill="none" xmlns="http://www.w3.org/2000/svg">
<path fill-rule="evenodd" clip-rule="evenodd" d="M5.74353 20.5786C5.74353 20.5786 14.8146 5.89453 29.9331 5.89453C45.0516 5.89453 54.1227 20.5786 54.1227 20.5786C54.1227 20.5786 45.0516 35.2627 29.9331 35.2627C14.8146 35.2627 5.74353 20.5786 5.74353 20.5786ZM11.2164 20.8968L10.9745 20.5786L11.2225 20.2605C12.2082 19.0123 13.6596 17.3555 15.5161 15.7182C19.332 12.3433 24.2485 9.56556 29.9331 9.56556C35.6116 9.56556 40.5342 12.3433 44.3561 15.7182C46.047 17.2236 47.5651 18.8505 48.8917 20.5786C47.5592 22.3047 46.0393 23.9313 44.3501 25.4391C40.5342 28.814 35.6176 31.5917 29.9331 31.5917C24.2546 31.5917 19.332 28.814 15.5101 25.4391C13.9216 24.0267 12.4852 22.5071 11.2164 20.8968ZM39.0042 20.5786C39.0036 22.1242 38.4004 23.6302 37.2806 24.8821C36.1608 26.134 34.5814 27.0679 32.7675 27.5509C30.9536 28.0338 28.9976 28.0411 27.1782 27.5717C25.3589 27.1023 23.7689 26.1802 22.6349 24.9367C21.5009 23.6932 20.8806 22.1918 20.8624 20.6463C20.8442 19.1008 21.4291 17.5901 22.5337 16.3294C23.6383 15.0686 25.2063 14.1222 27.0143 13.6249C28.8223 13.1275 30.7781 13.1047 32.603 13.5596C31.9347 13.8044 31.3498 14.1767 30.8983 14.6446C30.4468 15.1125 30.1423 15.662 30.0108 16.2461C29.8793 16.8302 29.9248 17.4314 30.1434 17.9981C30.362 18.5648 30.7471 19.0802 31.2658 19.5C31.7844 19.9198 32.4212 20.2315 33.1213 20.4084C33.8215 20.5853 34.5643 20.6221 35.2859 20.5157C36.0075 20.4093 36.6865 20.1628 37.2646 19.7974C37.8427 19.432 38.3026 18.9585 38.605 18.4176C38.8705 19.1178 39.005 19.8462 39.0042 20.5786Z" fill="black"/>
</svg>
